<?xml version="1.0" standalone="no"?>
<!DOCTYPE svg PUBLIC "-//W3C//DTD SVG 20010904//EN"
 "http://www.w3.org/TR/2001/REC-SVG-20010904/DTD/svg10.dtd">
<svg version="1.0" xmlns="http://www.w3.org/2000/svg"
 width="1952.000000pt" height="1952.000000pt" viewBox="0 0 1952.000000 1952.000000"
 preserveAspectRatio="xMidYMid meet">
<metadata>
Created by potrace 1.14, written by Peter Selinger 2001-2017
</metadata>
<g transform="translate(0.000000,1952.000000) scale(0.100000,-0.100000)"
fill="#000000" stroke="none">
<path d="M17005 13270 c-1 -3 -3 -243 -3 -535 0 -291 -1 -546 -1 -565 l-1 -35
-600 0 c-594 0 -600 0 -601 -20 -1 -26 -1 -1108 0 -1117 1 -3 256 -6 569 -7
312 0 583 0 602 -1 l35 0 -2 -602 c-1 -332 0 -610 3 -618 3 -13 75 -15 589
-15 l585 0 0 617 0 618 63 0 c34 1 304 1 600 1 295 0 538 4 538 7 1 4 2 260 3
570 1 371 -2 562 -9 563 -5 1 -275 2 -600 3 l-590 1 -5 570 -5 570 -583 0
c-321 0 -585 -2 -587 -5z m916 -264 c0 -6 1 -256 1 -556 0 -300 2 -552 4 -560
3 -13 78 -15 603 -14 l598 1 1 -314 1 -313 -603 0 -603 0 0 -608 c0 -335 -3
-614 -7 -620 -4 -7 -109 -10 -331 -10 l-325 0 0 619 0 619 -602 2 -603 3 0
311 0 311 585 1 c322 0 593 1 603 1 16 1 17 35 17 570 l0 568 330 0 c233 0
330 -3 331 -11z"/>
<path d="M1422 9895 c-385 -71 -719 -298 -948 -645 -99 -150 -196 -397 -233
-595 -82 -435 -27 -883 150 -1238 43 -86 111 -200 129 -217 3 -3 24 -30 47
-60 133 -176 378 -357 590 -438 134 -51 166 -60 298 -81 70 -11 317 -11 360 0
17 4 49 11 72 14 235 33 577 224 763 425 96 103 190 223 190 242 0 5 -22 33
-49 62 -27 28 -68 72 -92 97 -222 235 -284 302 -287 310 -8 22 -31 5 -71 -52
-113 -161 -271 -288 -421 -341 -166 -58 -406 -58 -545 1 -79 33 -105 47 -150
77 -144 95 -269 267 -329 451 -56 169 -67 424 -28 598 96 426 379 677 769 684
156 3 297 -42 448 -142 115 -75 184 -143 303 -297 3 -5 44 37 292 301 69 73
133 141 143 151 9 10 17 22 17 28 0 23 -136 198 -205 263 -16 16 -50 48 -75
71 -147 140 -394 264 -635 318 -115 26 -393 33 -503 13z"/>
<path d="M3271 9500 c0 -170 3 -311 7 -311 4 -1 313 -2 687 -3 l680 -1 57 -28
c121 -59 191 -204 184 -382 -7 -158 -70 -275 -181 -334 l-50 -26 -680 -2
c-374 -1 -685 -2 -692 -3 -8 0 -12 -80 -12 -310 l0 -310 742 0 c696 0 748 2
822 20 241 57 426 217 540 464 36 76 83 226 90 287 3 19 8 62 13 95 9 72 8
213 -2 311 -4 40 -7 74 -6 75 1 2 -3 16 -9 31 -6 15 -13 42 -16 59 -10 56 -70
204 -116 283 -44 78 -171 220 -236 264 -51 35 -152 82 -223 104 -63 21 -87 21
-832 25 l-766 3 -1 -311z"/>
<path d="M5950 8260 l0 -1550 308 0 307 0 0 1060 c0 583 2 1060 5 1060 3 -1
44 -58 92 -128 47 -70 168 -244 267 -387 99 -143 215 -311 258 -373 43 -62 94
-135 113 -162 19 -27 136 -195 260 -375 124 -179 255 -369 292 -423 38 -53 73
-104 78 -112 6 -8 34 -49 63 -90 l53 -75 344 2 c189 2 345 5 348 7 2 3 -53 85
-122 183 -69 98 -179 253 -243 346 -65 92 -133 189 -151 215 -29 41 -110 156
-182 257 -12 17 -90 127 -172 245 -83 118 -235 334 -338 480 -102 146 -203
290 -225 320 -21 30 -70 100 -108 155 -39 55 -99 141 -134 190 -35 50 -67 95
-71 100 -7 9 -178 252 -242 344 -14 20 -60 87 -104 149 l-79 112 -308 0 -309
0 0 -1550z"/>
<path d="M8130 9091 l0 -719 127 -173 c70 -96 177 -241 238 -324 61 -82 139
-189 174 -237 35 -49 66 -88 70 -88 3 0 6 509 6 1130 l0 1130 -307 0 -308 0 0
-719z"/>
<path d="M10460 9754 c-8 -1 -49 -8 -90 -14 -243 -40 -506 -176 -700 -363
-193 -186 -323 -414 -403 -707 -60 -215 -73 -566 -31 -805 27 -155 62 -276
113 -394 137 -318 375 -569 676 -716 90 -44 243 -98 307 -109 161 -28 331 -34
430 -16 24 5 57 10 73 13 294 47 623 255 823 520 124 162 234 398 267 566 2
13 6 30 9 39 9 30 24 127 35 224 9 80 7 379 -4 443 -47 298 -116 495 -240 690
-162 254 -439 473 -715 564 -115 38 -124 40 -215 55 -77 12 -287 19 -335 10z
m396 -724 c282 -113 470 -364 512 -685 4 -27 6 -111 5 -185 -3 -262 -85 -471
-245 -628 -103 -100 -178 -147 -306 -191 -107 -36 -269 -48 -362 -25 -14 3
-36 8 -49 10 -13 3 -51 16 -85 30 -244 99 -413 296 -483 563 -35 133 -41 354
-13 486 50 241 170 427 354 549 112 74 241 115 401 129 55 4 198 -24 271 -53z"/>
<path d="M12306 9648 c3 -13 21 -70 40 -128 18 -58 130 -415 249 -795 119
-379 220 -701 225 -715 8 -24 82 -259 135 -430 30 -97 162 -517 236 -753 l50
-157 236 2 237 3 37 115 c49 154 190 602 193 615 2 10 49 158 134 425 25 80
47 150 48 155 1 6 19 62 39 125 20 63 60 191 89 284 29 93 55 165 58 160 5 -8
43 -127 125 -389 38 -121 102 -322 126 -395 11 -36 22 -70 23 -76 1 -6 11 -40
23 -75 12 -35 84 -262 160 -504 l138 -440 238 0 238 0 24 75 c13 41 30 95 39
120 8 25 17 54 19 66 3 12 12 41 21 65 8 24 17 51 19 59 2 8 24 80 50 160 26
80 53 168 62 195 29 98 102 331 122 390 10 33 24 76 29 95 5 19 29 94 52 165
23 72 43 135 44 140 2 9 47 153 121 385 18 58 56 177 83 265 28 88 92 291 142
450 51 160 93 297 95 305 3 8 7 25 11 38 l6 22 -307 -2 -307 -3 -38 -125 c-21
-69 -84 -280 -140 -470 -56 -190 -124 -419 -152 -510 -27 -91 -51 -172 -53
-180 -2 -8 -13 -46 -25 -85 -27 -89 -59 -198 -105 -350 -20 -66 -38 -129 -40
-139 -12 -56 -38 -118 -45 -105 -3 8 -42 131 -85 274 -42 143 -81 269 -85 280
-8 20 -52 161 -56 180 -4 17 -65 219 -71 235 -3 8 -7 20 -8 26 -2 5 -22 71
-45 145 -64 205 -81 263 -171 557 l-83 272 -192 0 c-106 0 -195 -4 -198 -9 -3
-5 -31 -92 -61 -193 -31 -100 -71 -232 -90 -293 -55 -178 -117 -379 -119 -390
-1 -5 -13 -41 -25 -80 -12 -38 -24 -77 -26 -85 -2 -8 -18 -60 -35 -115 -18
-55 -36 -116 -42 -135 -5 -19 -21 -71 -35 -115 -13 -44 -49 -161 -80 -260
-104 -344 -96 -321 -104 -294 -11 33 -112 377 -159 534 -51 174 -96 324 -240
810 -68 226 -135 454 -151 508 -16 54 -31 103 -34 108 -4 5 -133 9 -311 9
l-305 0 7 -22z"/>
<path d="M1569 8591 c-120 -38 -192 -152 -198 -314 -8 -224 101 -362 284 -360
87 1 133 20 191 79 58 60 86 146 85 263 -1 206 -106 336 -273 339 -35 0 -75
-3 -89 -7z"/>
</g>
</svg>
